<svg height="511pt" viewBox="0 0 511.99999 511" width="511pt" xmlns="http://www.w3.org/2000/svg"><path d="m90 152.496094h181.996094v30h-181.996094zm0 0"/><path d="m60 212.496094h241.992188v30h-241.992188zm0 0"/><path d="m60 272.496094h241.992188v29.996094h-241.992188zm0 0"/><path d="m60 422.492188h90.996094v30h-90.996094zm0 0"/><path d="m361.992188 396.132812 136.816406-136.816406c17.585937-17.585937 17.589844-46.050781 0-63.640625-17.542969-17.546875-46.09375-17.542969-63.636719 0l-73.179687 73.179688v-201.386719l-100.457032-66.96875h-261.535156v511.988281h361.992188zm-72.808594-12.046874 84.167968-84.164063 21.214844 21.210937-84.167968 84.167969-31.820313 10.605469zm167.203125-167.195313c5.859375-5.863281 15.347656-5.863281 21.210937 0 5.863282 5.863281 5.863282 15.347656 0 21.210937l-61.820312 61.820313-21.210938-21.214844zm-184.390625-173.363281 25.457031 16.972656h-25.457031zm-241.996094 438.964844v-451.992188h211.996094v60h89.996094v208.355469l-33.636719 33.636719h-238.355469v30h208.355469l-5.390625 5.390624-31.816406 95.457032 95.457031-31.820313 5.386719-5.390625v56.359375h-301.992188zm0 0"/></svg>