<svg id="Capa_1" enable-background="new 0 0 512 512" height="512" viewBox="0 0 512 512" width="512" xmlns="http://www.w3.org/2000/svg"><g><path d="m61 0v440.965h123.96l71.04 71.035 71.04-71.035h123.96v-440.965zm360 410.967h-106.387l-58.613 58.609-58.613-58.609h-106.387v-380.969h330z"/><path d="m318.783 195.794c0-21.107-10.471-39.815-26.491-51.202 5.473-7.452 8.709-16.643 8.709-26.577 0-24.812-20.187-44.998-45-44.998s-45 20.186-45 44.998c0 9.933 3.236 19.125 8.709 26.577-16.02 11.387-26.491 30.095-26.491 51.202v34.606h125.565v-34.606zm-77.783-77.778c0-8.271 6.729-14.999 15-14.999s15 6.729 15 14.999-6.729 14.999-15 14.999-15-6.729-15-14.999zm47.783 82.386h-65.565v-4.608c0-18.076 14.706-32.781 32.783-32.781s32.783 14.705 32.783 32.781v4.608z"/><path d="m151 269.921h210v29.998h-210z"/><path d="m191 329.917h130v29.998h-130z"/></g></svg>