<svg xmlns="http://www.w3.org/2000/svg" viewBox="0 0 664.36 318.9"><path d="M272.8 223h6.5a6.16 6.16 0 012.7.5 1.98 1.98 0 01.9 1.9c0 1.7-1.2 2.6-3.6 2.6h-.6c-.8 0-1.2.4-1.2 1.3v3.3c0 .8.4 1.3 1.2 1.3h1q3.6 0 3.6 2.7c0 1.9-1.1 2.8-3.3 2.8h-7.2zm-5.5 22.6h12.6c3.1 0 5.6-.7 7.4-2.2a7.22 7.22 0 002.8-6.2 6.9 6.9 0 00-.4-2.5 7.45 7.45 0 00-.9-1.8 6.28 6.28 0 00-1.1-1.2 2.6 2.6 0 00-1-.7l-.6-.3a5.74 5.74 0 00.7-.4 4.64 4.64 0 001-1 4.9 4.9 0 001-1.9 7.66 7.66 0 00.4-2.7 7.17 7.17 0 00-2.5-5.6c-1.7-1.5-4.2-2.3-7.5-2.3h-12c-.8 0-1.2.4-1.2 1.3v26.2c0 .9.4 1.3 1.3 1.3zM303.3 234.8l3.2-9.6 3.2 9.6zm7-16.5a1.98 1.98 0 00-1.8-1.4h-4.1a1.98 1.98 0 00-1.8 1.4l-9.5 26.1c-.3.8-.1 1.2.7 1.2h4.5a1.8 1.8 0 001.1-.3 2.89 2.89 0 00.6-1l1.2-3.4h10.5l1.2 3.4a2.14 2.14 0 00.6 1 1.6 1.6 0 001.1.3h4.5c.8 0 1.1-.4.7-1.2zM324.9 245.6h34.3c.8 0 1.2-.4 1.2-1.3v-26.2c0-.8-.4-1.3-1.2-1.3h-4.3a1.22 1.22 0 00-.9.3 1.33 1.33 0 00-.3 1v21.5h-8.3v-21.5a1.33 1.33 0 00-.3-1 1.22 1.22 0 00-.9-.3h-4.4c-.8 0-1.2.4-1.2 1.3v21.5h-8.3v-21.5c0-.8-.4-1.3-1.2-1.3h-4.3c-.8 0-1.2.4-1.2 1.3v26.2c0 .9.4 1.3 1.3 1.3zM272.8 259.4h6.5a6.16 6.16 0 012.7.5 1.98 1.98 0 01.9 1.9c0 1.7-1.2 2.6-3.6 2.6h-.6c-.8 0-1.2.4-1.2 1.3v3.3c0 .8.4 1.3 1.2 1.3h1q3.6 0 3.6 2.7c0 1.9-1.1 2.8-3.3 2.8h-7.2zm-5.5 22.6h12.6c3.1 0 5.6-.7 7.4-2.2a7.22 7.22 0 002.8-6.2 6.9 6.9 0 00-.4-2.5 7.45 7.45 0 00-.9-1.8 6.28 6.28 0 00-1.1-1.2 2.6 2.6 0 00-1-.7l-.6-.3a5.74 5.74 0 00.7-.4 4.64 4.64 0 001-1 4.9 4.9 0 001-1.9 7.66 7.66 0 00.4-2.7 7.17 7.17 0 00-2.5-5.6c-1.7-1.5-4.2-2.3-7.5-2.3h-12c-.8 0-1.2.4-1.2 1.3v26.2c0 .9.4 1.3 1.3 1.3zM310.9 272.2a3.94 3.94 0 01-1.3 3.2 4.96 4.96 0 01-3.5 1.2 5.13 5.13 0 01-3.5-1.2 4.08 4.08 0 01-1.3-3.2v-9.1a3.94 3.94 0 011.3-3.2 4.96 4.96 0 013.5-1.2 5.13 5.13 0 013.5 1.2 4.08 4.08 0 011.3 3.2zm2.9-17.2a10.38 10.38 0 00-3.7-1.7 13.36 13.36 0 00-4-.6 13.86 13.86 0 00-4 .6 17.64 17.64 0 00-3.7 1.7 8.99 8.99 0 00-3.9 7.5v10.3a8 8 0 001.1 4.4 8.37 8.37 0 002.8 3.1 10.38 10.38 0 003.7 1.7 17.56 17.56 0 004 .6 13.86 13.86 0 004-.6 17.64 17.64 0 003.7-1.7 8.99 8.99 0 003.9-7.5v-10.3a8.97 8.97 0 00-1.1-4.4 7.67 7.67 0 00-2.8-3.1zM343.7 275.9H330v-5.8h11.5c.8 0 1.2-.4 1.2-1.3v-3.4c0-.8-.4-1.3-1.2-1.3H330v-4.8h13c.8 0 1.2-.4 1.2-1.3v-3.6c0-.8-.4-1.3-1.2-1.3h-18.5c-.8 0-1.2.4-1.2 1.3v26.2c0 .8.4 1.3 1.2 1.3h19.2c.8 0 1.2-.4 1.2-1.3V277c0-.7-.4-1.1-1.2-1.1zM371.9 253.3h-4.3c-.8 0-1.2.4-1.2 1.3v9.9h-9.6v-9.9a1.33 1.33 0 00-.3-1 1.22 1.22 0 00-.9-.3h-4.2c-.8 0-1.2.4-1.2 1.3v26.2c0 .8.4 1.3 1.2 1.3h4.2a1.22 1.22 0 00.9-.3 1.33 1.33 0 00.3-1v-9.9h9.6v9.9c0 .8.4 1.3 1.2 1.3h4.3c.8 0 1.2-.4 1.2-1.3v-26.2c0-.9-.4-1.3-1.2-1.3zM401.3 253.3h-4.2c-.8 0-1.2.4-1.2 1.3v9.9h-9.6v-9.9a1.33 1.33 0 00-.3-1 1.22 1.22 0 00-.9-.3h-4.4c-.8 0-1.2.4-1.2 1.3v26.2c0 .8.4 1.3 1.2 1.3h4.3a1.22 1.22 0 00.9-.3 1.33 1.33 0 00.3-1v-9.9h9.6v9.9c0 .8.4 1.3 1.2 1.3h4.2c.8 0 1.2-.4 1.2-1.3v-26.2c.1-.9-.3-1.3-1.1-1.3zM419.7 275.8h-4.1v-7.4h4.1a5.34 5.34 0 013.6 1 3.42 3.42 0 011.2 2.7c0 2.5-1.6 3.7-4.8 3.7zm0-13.2h-4.1v-8.1c0-.8-.4-1.3-1.2-1.3h-4.3c-.8 0-1.2.4-1.2 1.3v26.2c0 .8.4 1.3 1.2 1.3h9.7c3.6 0 6.4-.9 8.3-2.6a10.39 10.39 0 000-14.4q-2.85-2.4-8.4-2.4zM436.3 282h4.3c.8 0 1.2-.4 1.2-1.3v-26.2c0-.8-.4-1.3-1.2-1.3h-4.3c-.8 0-1.2.4-1.2 1.3v26.2c0 .9.4 1.3 1.2 1.3zM449.5 282h3.9a2.92 2.92 0 00.9-.2c.2-.2.4-.3.5-.4a3.77 3.77 0 00.5-.8l9.1-15v15.2c0 .8.4 1.3 1.2 1.3h4.3c.8 0 1.2-.4 1.2-1.3v-26.2c0-.8-.4-1.3-1.2-1.3h-4a2.92 2.92 0 00-.9.2c-.2.2-.4.3-.5.4a3.77 3.77 0 00-.5.8l-9.1 14.9v-15.1c0-.8-.4-1.3-1.2-1.3h-4.1c-.8 0-1.2.4-1.2 1.3v26.2c-.2.9.2 1.3 1.1 1.3zM455.5 248.8a8.15 8.15 0 004.7 1.4 7.93 7.93 0 004.7-1.4 5.32 5.32 0 002.3-4c0-.6-.1-.9-.4-.9h-2.1c-.3 0-.5.2-.7.7a3.32 3.32 0 01-1.5 1.6 4.7 4.7 0 01-4.6 0 3.32 3.32 0 01-1.5-1.6c-.2-.5-.4-.7-.7-.7h-2.1c-.2 0-.3.1-.3.2a.6.6 0 00-.1.4v.3a5.32 5.32 0 002.3 4zM289.5 289.6h-5.8a2.68 2.68 0 00-1.1.2 3.52 3.52 0 00-1 .9l-8.9 9.9v-9.7c0-.8-.4-1.3-1.2-1.3h-4.3a1.22 1.22 0 00-.9.3 1.33 1.33 0 00-.3 1v26.2a1.33 1.33 0 00.3 1 1.22 1.22 0 00.9.3h4.3c.8 0 1.2-.4 1.2-1.3v-7.8l2.7-2.8c1.5 2.6 3.6 6.1 6.1 10.5a2.61 2.61 0 002.1 1.4h5.2a.67.67 0 00.7-.5.97.97 0 00-.1-.9l-9.2-15.4 9.7-10.6a.78.78 0 00.2-.8.53.53 0 00-.6-.6zM309.5 308.5a3.94 3.94 0 01-1.3 3.2 4.96 4.96 0 01-3.5 1.2 5.13 5.13 0 01-3.5-1.2 4.08 4.08 0 01-1.3-3.2v-9.1a3.94 3.94 0 011.3-3.2 4.96 4.96 0 013.5-1.2 5.13 5.13 0 013.5 1.2 4.08 4.08 0 011.3 3.2zm2.9-17.2a10.38 10.38 0 00-3.7-1.7 13.36 13.36 0 00-4-.6 13.86 13.86 0 00-4 .6 17.64 17.64 0 00-3.7 1.7 8.99 8.99 0 00-3.9 7.5v10.3a8 8 0 001.1 4.4 8.37 8.37 0 002.8 3.1 10.38 10.38 0 003.7 1.7 13.36 13.36 0 004 .6 13.86 13.86 0 004-.6 17.64 17.64 0 003.7-1.7 8.99 8.99 0 003.9-7.5v-10.3a8.97 8.97 0 00-1.1-4.4 8.37 8.37 0 00-2.8-3.1zM343.6 289.6h-4.2c-.8 0-1.2.4-1.2 1.3v9.9h-9.6v-9.9a1.33 1.33 0 00-.3-1 1.22 1.22 0 00-.9-.3h-4.2c-.8 0-1.2.4-1.2 1.3v26.2c0 .8.4 1.3 1.2 1.3h4.2a1.22 1.22 0 00.9-.3 1.33 1.33 0 00.3-1v-9.9h9.6v9.9c0 .8.4 1.3 1.2 1.3h4.2c.8 0 1.2-.4 1.2-1.3v-26.2c0-.8-.4-1.3-1.2-1.3zM358.3 296.2a4.96 4.96 0 013.5-1.2 4.76 4.76 0 014.4 2.1c.1.1.1.3.3.5a1.54 1.54 0 00.4.6 1.42 1.42 0 00.6.2h4.1a2.68 2.68 0 001.1-.2 1.33 1.33 0 00.3-1 8.15 8.15 0 00-3.6-6.1 12.96 12.96 0 00-7.5-2.2 13.86 13.86 0 00-4 .6 17.64 17.64 0 00-3.7 1.7 8.99 8.99 0 00-3.9 7.5V309a9.26 9.26 0 001.1 4.4 8.37 8.37 0 002.8 3.1 10.38 10.38 0 003.7 1.7 13.36 13.36 0 004 .6 12.77 12.77 0 007.7-2.6 7.9 7.9 0 003.5-6.6c0-1-.4-1.5-1.3-1.5h-4.2a1.45 1.45 0 00-.7.2c-.2.2-.3.3-.3.5a3.1 3.1 0 01-.2.8q-.45 3-4.5 3a5.13 5.13 0 01-3.5-1.2 3.94 3.94 0 01-1.3-3.2v-9.1a3.46 3.46 0 011.2-2.9zM401.3 289.6h-4.8a1.6 1.6 0 00-1.1.3 2.85 2.85 0 00-.7 1l-2.9 6.1-2.6 5.9-2.6-6-3-6.2a1.71 1.71 0 00-.6-.9 2.5 2.5 0 00-1-.2h-5.1a.81.81 0 00-.8.4 1.39 1.39 0 000 .9l9.6 19.5-3.2 6.7a.97.97 0 00-.1.9.63.63 0 00.6.5h4.8a2.68 2.68 0 001.1-.2 3.06 3.06 0 00.8-1l12.5-26.3a1.39 1.39 0 000-.9.96.96 0 00-.9-.5zM427.1 289.6H410c-.8 0-1.2.4-1.2 1.3l-1.5 19a4.86 4.86 0 01-.6 2.2c-.3.5-.9.7-1.8.7q-.9 0-.9 1.2v3.3a2.15 2.15 0 00.2 1c.2.2.5.2 1.1.2 3.3.1 5.5-.5 6.7-1.6 1.1-1.1 1.8-3.4 2-7l.9-14.2h6.9V317c0 .8.4 1.3 1.2 1.3h4.2c.8 0 1.2-.4 1.2-1.3v-26.2a1.18 1.18 0 00-1.3-1.2zM445.6 312.2h-4.1v-7.4h4.1a5.34 5.34 0 013.6 1 3.42 3.42 0 011.2 2.7c0 2.5-1.6 3.7-4.8 3.7zm0-13.3h-4.1v-8.1c0-.8-.4-1.3-1.2-1.3H436c-.8 0-1.2.4-1.2 1.3V317c0 .8.4 1.3 1.2 1.3h9.7c3.6 0 6.4-.9 8.3-2.6a10.39 10.39 0 000-14.4 13.75 13.75 0 00-8.4-2.4zM481.4 289.6h-19.9c-.8 0-1.2.4-1.2 1.3v3.6c0 .8.4 1.3 1.2 1.3h6.6v21.3c0 .8.4 1.3 1.2 1.3h4.2c.8 0 1.2-.4 1.2-1.3v-21.3h6.6c.8 0 1.2-.4 1.2-1.3v-3.6a1.03 1.03 0 00-1.1-1.3zM494.7 307.5l3.2-9.6 3.2 9.6zm7-16.5a1.98 1.98 0 00-1.8-1.4h-4.1a1.98 1.98 0 00-1.8 1.4l-9.5 26.1c-.3.8-.1 1.2.7 1.2h4.5a1.8 1.8 0 001.1-.3 2.89 2.89 0 00.6-1l1.2-3.4h10.5l1.2 3.4a2.14 2.14 0 00.6 1 1.6 1.6 0 001.1.3h4.5c.8 0 1.1-.4.7-1.2zM536.8 289.6h-4.3c-.8 0-1.2.4-1.2 1.3v9.9h-9.6v-9.9a1.33 1.33 0 00-.3-1 1.22 1.22 0 00-.9-.3h-4.3c-.8 0-1.2.4-1.2 1.3v26.2c0 .8.4 1.3 1.2 1.3h4.3a1.22 1.22 0 00.9-.3 1.33 1.33 0 00.3-1v-9.9h9.6v9.9c0 .8.4 1.3 1.2 1.3h4.3c.8 0 1.2-.4 1.2-1.3v-26.2a1.1 1.1 0 00-1.2-1.3zM563.5 289.6h-19.9c-.8 0-1.2.4-1.2 1.3v3.6c0 .8.4 1.3 1.2 1.3h6.6v21.3c0 .8.4 1.3 1.2 1.3h4.2c.8 0 1.2-.4 1.2-1.3v-21.3h6.6c.8 0 1.2-.4 1.2-1.3v-3.6a1.03 1.03 0 00-1.1-1.3zM236.5 0H168a1.27 1.27 0 00-1.4 1.2v28.1c0 3.7-3.6 6.8-8 6.8h-42.7c-4.4 0-8-3-8-6.8V25c0-3.7 3.6-6.8 8-6.8h21.6c4.4 0 7.9-3 8-6.6V6.8c0-3.7-3.6-6.8-8-6.8h-76a1.29 1.29 0 00-1.4 1.3c2.8 49.4 42.9 64.6 71.3 72.8 41.8 12.1 97.6 24.3 106.9 54.8a10.26 10.26 0 01.4 1.4c.2.6 1.3.5 1.5 0V66.6c-.2-3.6-4.4-6.3-8.8-5.6a125.75 125.75 0 01-18 1.8h-.1c-1 .1-2.1.1-3.2.1-15.5 0-28.1-7.7-28.1-17.2 0-5.3 3.9-10 10-13.1 8.7-4.8 21.5-5.6 39.2-2.6 4.5.8 8.7-2 8.9-5.7V2.8a3.37 3.37 0 00-3.6-2.8z" fill="#fff"/><path d="M533.5.1h-64a3.14 3.14 0 00-2 5.6 55.92 55.92 0 016.3 5.7c9.8 10.4 14.7 23.2 14.7 38.5q0 30.15-26.3 43.2l-5.2 2.3 5.2 2.3q26.25 13.05 26.3 43.2c0 15.2-4.9 28.1-14.7 38.5a55.92 55.92 0 01-6.3 5.7 3.14 3.14 0 002 5.6h64a3.22 3.22 0 003.2-3.2V3.3a3.29 3.29 0 00-3.2-3.2zM596 97.5a3.01 3.01 0 010-3.8l67.7-88.5a3.17 3.17 0 00-2.5-5.1h-40.5a3.34 3.34 0 00-2.5 1.2l-70.6 92.3a3.01 3.01 0 000 3.8l70.6 92.3a3.03 3.03 0 002.5 1.2h40.5a3.17 3.17 0 002.5-5.1zM338.6 113.2H370a19.2 19.2 0 0112.9 5.1 23.4 23.4 0 017.6 12.8 38.88 38.88 0 01.5 4.8c0 7.8-3.2 13.7-9.7 17.6a18.4 18.4 0 01-10 2.9h-58.6a3.22 3.22 0 01-3.2-3.2V37.8a3.22 3.22 0 013.2-3.2h58.6a19.29 19.29 0 0110 2.9c6.5 3.9 9.7 9.8 9.7 17.6a38.88 38.88 0 01-.5 4.8 24.38 24.38 0 01-7.6 12.8 19.01 19.01 0 01-12.9 5.1h-31.4a4.03 4.03 0 00-4 4.1v27.2a4.03 4.03 0 004 4.1zm74.8-19.9q26.25-12.45 26.3-41.3c0-14.6-4.9-26.8-14.7-36.7A49.53 49.53 0 00388.5.1H269.1a3.22 3.22 0 00-3.2 3.2v184.6a3.22 3.22 0 003.2 3.2h119.3a49.37 49.37 0 0036.5-15.2c9.8-9.9 14.7-22.2 14.7-36.7 0-19.2-8.8-32.9-26.3-41.3l-5.1-2.2zM143 180.6C98 161 43 142.8 5.9 97.5a3.15 3.15 0 00-5.6 2.2c3.3 56.1 35.3 82.8 83.8 103.9 27.5 11.9 60.7 23.3 100.5 65.2a3.2 3.2 0 004.8-.2c29-35.8.3-67.6-46.4-88zM6.4 180c-.3-.6-1.4-2.2-3-1.4-1.1.5-1.2 1.6-.5 4.6 9 38 50.5 96 119.6 132.2a3 3 0 002.9 0 285.1 285.1 0 0035.6-21.9 3.13 3.13 0 001-4C137.8 245.6 38.3 235.2 6.4 180zM115.6 98.5C83.7 87.7 38.7 67.6 35.1 3A3.16 3.16 0 0032 0H3.2A3.22 3.22 0 000 3.2c.3 31.4 11.1 60.3 29.4 81.4 26.7 30.6 47.3 36.5 75 47.3 25 9.8 101.6 32 124.3 77.9a3.16 3.16 0 005.8-.3c23.9-63.3-60.2-91.1-118.9-111z" fill="#23b7a4" fill-rule="evenodd"/></svg>
