<svg id="Capa_1" enable-background="new 0 0 510 510" height="512" viewBox="0 0 510 510" width="512" xmlns="http://www.w3.org/2000/svg"><g><path d="m120 167v15c0 24.813-20.187 45-45 45h-15v110h15c24.813 0 45 20.187 45 45v15h270v-15c0-24.813 20.187-45 45-45h15v-110h-15c-24.813 0-45-20.187-45-45v-15zm300 88.493v53.014c-29.342 5.98-52.513 29.151-58.493 58.493h-213.014c-5.981-29.342-29.151-52.513-58.493-58.493v-53.014c29.342-5.98 52.512-29.151 58.493-58.493h213.014c5.98 29.342 29.151 52.513 58.493 58.493z"/><path d="m60 367h30v30h-30z"/><path d="m420 167h30v30h-30z"/><path d="m420 367h30v30h-30z"/><path d="m255 227c-30.327 0-55 24.673-55 55s24.673 55 55 55 55-24.673 55-55-24.673-55-55-55zm0 80c-13.785 0-25-11.215-25-25s11.215-25 25-25 25 11.215 25 25-11.215 25-25 25z"/><path d="m50 107 27-36-24-18-51.75 69 51.75 69 24-18-27-36h430v35 15 240h-450v-215h-30v245h510v-270-15-65z"/></g></svg>