<svg height="512pt" viewBox="0 0 512 512" width="512pt" xmlns="http://www.w3.org/2000/svg"><path d="m507.601562 229.316406c-15.707031-15.703125-36.585937-24.355468-58.796874-24.355468-22.210938 0-43.09375 8.652343-58.796876 24.355468l-27.75 27.75h-169.382812c-25.464844 0-49.40625 9.917969-67.410156 27.921875l-46.199219 46.199219-5.460937-5.460938c-5.855469-5.859374-15.355469-5.859374-21.210938 0l-48.203125 48.199219c-2.8125 2.8125-4.390625 6.628907-4.390625 10.605469 0 3.980469 1.578125 7.792969 4.394531 10.609375l112.46875 112.464844c2.925781 2.929687 6.765625 4.394531 10.605469 4.394531s7.679688-1.464844 10.605469-4.394531l48.203125-48.199219c2.8125-2.8125 4.394531-6.628906 4.394531-10.605469 0-3.980469-1.582031-7.792969-4.394531-10.605469l-5.460938-5.460937 17.132813-17.132813h138.390625c3.976562 0 7.792968-1.582031 10.605468-4.394531l160.664063-160.667969c2.816406-2.8125 4.390625-6.632812 4.390625-10.609374 0-3.980469-1.585938-7.796876-4.398438-10.613282zm-380.132812 246.46875-91.253906-91.25 26.984375-26.988281 91.253906 91.253906zm202.652344-90.183594h-138.386719c-3.976563 0-7.792969 1.578126-10.605469 4.390626l-21.527344 21.527343-59.121093-59.121093 46.199219-46.195313c12.339843-12.339844 28.746093-19.136719 46.195312-19.136719h139.382812l-34.269531 34.269532h-74.121093c-8.28125 0-15 6.714843-15 15 0 8.28125 6.71875 15 15 15h80.335937c3.980469 0 7.792969-1.582032 10.605469-4.394532l96.410156-96.410156c10.039062-10.039062 23.386719-15.570312 37.585938-15.570312 9.050781 0 17.753906 2.25 25.480468 6.480468zm0 0"/><path d="m175.667969 222.800781h160.664062c8.285157 0 15-6.714843 15-15v-16.066406c0-44.015625-27.878906-72.066406-50.40625-84.132813 11.289063-11.425781 18.273438-27.109374 18.273438-44.402343 0-34.847657-28.351563-63.199219-63.199219-63.199219s-63.199219 28.351562-63.199219 63.199219c0 17.3125 7 33.015625 18.316407 44.441406-30 16.074219-50.449219 47.730469-50.449219 84.078125v16.082031c0 8.285157 6.714843 15 15 15zm80.332031-192.800781c18.308594 0 33.199219 14.894531 33.199219 33.199219 0 18.308593-14.890625 33.199219-33.199219 33.199219s-33.199219-14.890626-33.199219-33.199219c0-18.304688 14.890625-33.199219 33.199219-33.199219zm-65.332031 161.71875c0-36.019531 29.300781-65.320312 65.332031-65.320312 36.078125 0 65.332031 29.191406 65.332031 65.335937v1.066406h-130.664062zm0 0"/></svg>