<svg height="512pt" viewBox="0 0 512 512.00101" width="512pt" xmlns="http://www.w3.org/2000/svg"><path d="m462.1875 367.597656c12.421875-11.964844 20.175781-28.746094 20.175781-47.316406 0-36.234375-29.476562-65.714844-65.714843-65.714844-36.234376 0-65.714844 29.480469-65.714844 65.714844 0 18.570312 7.753906 35.351562 20.179687 47.316406-9.738281 5.316406-18.445312 12.285156-25.757812 20.519532-8.0625-21.640626-23.773438-39.589844-43.832031-50.542969 12.425781-11.960938 20.179687-28.746094 20.179687-47.316407 0-36.234374-29.476563-65.714843-65.714844-65.714843-36.234375 0-65.714843 29.480469-65.714843 65.714843 0 18.570313 7.753906 35.351563 20.179687 47.316407-20.058594 10.953125-35.765625 28.902343-43.832031 50.542969-7.308594-8.234376-16.019532-15.203126-25.757813-20.519532 12.425781-11.964844 20.183594-28.746094 20.183594-47.316406 0-36.234375-29.480469-65.714844-65.71875-65.714844-36.234375 0-65.714844 29.480469-65.714844 65.714844 0 18.570312 7.753907 35.351562 20.179688 47.316406-29.640625 16.183594-49.792969 47.644532-49.792969 83.730469v60.671875h511.976562v-60.671875c0-36.085937-20.152343-67.550781-49.789062-83.730469zm-81.253906-47.316406c0-19.691406 16.019531-35.714844 35.714844-35.714844 19.695312 0 35.71875 16.019532 35.71875 35.714844s-16.023438 35.71875-35.71875 35.71875c-19.691407 0-35.714844-16.023438-35.714844-35.71875zm-160.660156-30.023438c0-19.695312 16.023437-35.714843 35.71875-35.714843 19.695312 0 35.714843 16.019531 35.714843 35.714843 0 19.695313-16.019531 35.71875-35.714843 35.71875-19.695313 0-35.71875-16.023437-35.71875-35.71875zm-160.660157 30.023438c0-19.691406 16.023438-35.714844 35.71875-35.714844 19.691407 0 35.714844 16.019532 35.714844 35.714844s-16.019531 35.71875-35.714844 35.71875c-19.695312 0-35.71875-16.023438-35.71875-35.71875zm101.046875 161.71875h-130.660156v-30.675781c0-36.019531 29.308594-65.328125 65.332031-65.328125 36.023438 0 65.328125 29.308594 65.328125 65.328125zm160.660156 0h-130.660156v-60.695312c0-36.023438 29.308594-65.332032 65.332032-65.332032 36.019531 0 65.328124 29.308594 65.328124 65.332032zm160.660157 0h-130.660157v-30.675781c0-36.019531 29.304688-65.328125 65.328126-65.328125 36.023437 0 65.332031 29.308594 65.332031 65.328125zm0 0"/><path d="m188.03125 209.160156 67.960938-35.726562 67.960937 35.726562-12.980469-75.675781 54.980469-53.59375-75.980469-11.039063-33.980468-68.851562-33.980469 68.851562-75.984375 11.039063 54.980468 53.59375zm53.898438-112.890625 14.0625-28.488281 14.058593 28.488281 31.4375 4.566407-22.746093 22.175781 5.367187 31.3125-28.117187-14.78125-28.121094 14.78125 5.371094-31.3125-22.75-22.175781zm0 0"/></svg>