<?xml version="1.0" encoding="utf-8"?><!DOCTYPE svg PUBLIC "-//W3C//DTD SVG 1.1//EN" "http://www.w3.org/Graphics/SVG/1.1/DTD/svg11.dtd"><svg viewBox="0 0 664.36 512" xmlns="http://www.w3.org/2000/svg" xmlns:xlink="http://www.w3.org/1999/xlink"><style>:root>svg{display:none}:root>svg:target{display:block}</style><svg viewBox="0 0 490 373.96" id="back" xmlns="http://www.w3.org/2000/svg"><path d="M490 164.011H215.032l71.165-56.375-28.531-36.008L112.077 186.98l145.589 115.352 28.531-36.008-71.165-56.375H490v-45.938zM0 0h45.938v373.96H0z"/></svg><svg viewBox="0 0 409.806 409.806" id="close" xmlns="http://www.w3.org/2000/svg"><path d="M228.929 205.01L404.596 29.343c6.78-6.548 6.968-17.352.42-24.132-6.548-6.78-17.352-6.968-24.132-.42-.142.137-.282.277-.42.42L204.796 180.878 29.129 5.21c-6.78-6.548-17.584-6.36-24.132.42-6.388 6.614-6.388 17.099 0 23.713L180.664 205.01 4.997 380.677c-6.663 6.664-6.663 17.468 0 24.132 6.664 6.662 17.468 6.662 24.132 0l175.667-175.667 175.667 175.667c6.78 6.548 17.584 6.36 24.132-.42 6.387-6.614 6.387-17.099 0-23.712L228.929 205.01z"/></svg><svg viewBox="0 0 511 511.9" id="in" xmlns="http://www.w3.org/2000/svg"><path d="M510.95 150.5c-1.2-27.2-5.598-45.898-11.9-62.102-6.5-17.199-16.5-32.597-29.6-45.398-12.802-13-28.302-23.102-45.302-29.5-16.296-6.3-34.898-10.7-62.097-11.898C334.648.3 325.949 0 256.449 0s-78.199.3-105.5 1.5c-27.199 1.2-45.898 5.602-62.097 11.898-17.204 6.5-32.602 16.5-45.403 29.602-13 12.8-23.097 28.3-29.5 45.3-6.3 16.302-10.699 34.9-11.898 62.098C.75 177.801.449 186.5.449 256s.301 78.2 1.5 105.5c1.2 27.2 5.602 45.898 11.903 62.102 6.5 17.199 16.597 32.597 29.597 45.398 12.801 13 28.301 23.102 45.301 29.5 16.3 6.3 34.898 10.7 62.102 11.898 27.296 1.204 36 1.5 105.5 1.5s78.199-.296 105.5-1.5c27.199-1.199 45.898-5.597 62.097-11.898a130.934 130.934 0 0074.903-74.898c6.296-16.301 10.699-34.903 11.898-62.102 1.2-27.3 1.5-36 1.5-105.5s-.102-78.2-1.3-105.5zm-46.098 209c-1.102 25-5.301 38.5-8.801 47.5-8.602 22.3-26.301 40-48.602 48.602-9 3.5-22.597 7.699-47.5 8.796-27 1.204-35.097 1.5-103.398 1.5s-76.5-.296-103.403-1.5c-25-1.097-38.5-5.296-47.5-8.796C94.551 451.5 84.45 445 76.25 436.5c-8.5-8.3-15-18.3-19.102-29.398-3.5-9-7.699-22.602-8.796-47.5-1.204-27-1.5-35.102-1.5-103.403s.296-76.5 1.5-103.398c1.097-25 5.296-38.5 8.796-47.5C61.25 94.199 67.75 84.1 76.352 75.898c8.296-8.5 18.296-15 29.398-19.097 9-3.5 22.602-7.7 47.5-8.801 27-1.2 35.102-1.5 103.398-1.5 68.403 0 76.5.3 103.403 1.5 25 1.102 38.5 5.3 47.5 8.8 11.097 4.098 21.199 10.598 29.398 19.098 8.5 8.301 15 18.301 19.102 29.403 3.5 9 7.699 22.597 8.8 47.5 1.2 27 1.5 35.097 1.5 103.398s-.3 76.301-1.5 103.301zm0 0"/><path d="M256.45 124.5c-72.598 0-131.5 58.898-131.5 131.5s58.902 131.5 131.5 131.5c72.6 0 131.5-58.898 131.5-131.5s-58.9-131.5-131.5-131.5zm0 216.8c-47.098 0-85.302-38.198-85.302-85.3s38.204-85.3 85.301-85.3c47.102 0 85.301 38.198 85.301 85.3s-38.2 85.3-85.3 85.3zm0 0M423.852 119.3c0 16.954-13.747 30.7-30.704 30.7-16.953 0-30.699-13.746-30.699-30.7 0-16.956 13.746-30.698 30.7-30.698 16.956 0 30.703 13.742 30.703 30.699zm0 0"/></svg><svg viewBox="0 0 664.36 318.9" id="logo" xmlns="http://www.w3.org/2000/svg"><path d="M272.8 223h6.5a6.16 6.16 0 012.7.5 1.98 1.98 0 01.9 1.9c0 1.7-1.2 2.6-3.6 2.6h-.6c-.8 0-1.2.4-1.2 1.3v3.3c0 .8.4 1.3 1.2 1.3h1q3.6 0 3.6 2.7c0 1.9-1.1 2.8-3.3 2.8h-7.2zm-5.5 22.6h12.6c3.1 0 5.6-.7 7.4-2.2a7.22 7.22 0 002.8-6.2 6.9 6.9 0 00-.4-2.5 7.45 7.45 0 00-.9-1.8 6.28 6.28 0 00-1.1-1.2 2.6 2.6 0 00-1-.7l-.6-.3a5.74 5.74 0 00.7-.4 4.64 4.64 0 001-1 4.9 4.9 0 001-1.9 7.66 7.66 0 00.4-2.7 7.17 7.17 0 00-2.5-5.6c-1.7-1.5-4.2-2.3-7.5-2.3h-12c-.8 0-1.2.4-1.2 1.3v26.2c0 .9.4 1.3 1.3 1.3zm36-10.8l3.2-9.6 3.2 9.6zm7-16.5a1.98 1.98 0 00-1.8-1.4h-4.1a1.98 1.98 0 00-1.8 1.4l-9.5 26.1c-.3.8-.1 1.2.7 1.2h4.5a1.8 1.8 0 001.1-.3 2.89 2.89 0 00.6-1l1.2-3.4h10.5l1.2 3.4a2.14 2.14 0 00.6 1 1.6 1.6 0 001.1.3h4.5c.8 0 1.1-.4.7-1.2zm14.6 27.3h34.3c.8 0 1.2-.4 1.2-1.3v-26.2c0-.8-.4-1.3-1.2-1.3h-4.3a1.22 1.22 0 00-.9.3 1.33 1.33 0 00-.3 1v21.5h-8.3v-21.5a1.33 1.33 0 00-.3-1 1.22 1.22 0 00-.9-.3h-4.4c-.8 0-1.2.4-1.2 1.3v21.5h-8.3v-21.5c0-.8-.4-1.3-1.2-1.3h-4.3c-.8 0-1.2.4-1.2 1.3v26.2c0 .9.4 1.3 1.3 1.3zm-52.1 13.8h6.5a6.16 6.16 0 012.7.5 1.98 1.98 0 01.9 1.9c0 1.7-1.2 2.6-3.6 2.6h-.6c-.8 0-1.2.4-1.2 1.3v3.3c0 .8.4 1.3 1.2 1.3h1q3.6 0 3.6 2.7c0 1.9-1.1 2.8-3.3 2.8h-7.2zm-5.5 22.6h12.6c3.1 0 5.6-.7 7.4-2.2a7.22 7.22 0 002.8-6.2 6.9 6.9 0 00-.4-2.5 7.45 7.45 0 00-.9-1.8 6.28 6.28 0 00-1.1-1.2 2.6 2.6 0 00-1-.7l-.6-.3a5.74 5.74 0 00.7-.4 4.64 4.64 0 001-1 4.9 4.9 0 001-1.9 7.66 7.66 0 00.4-2.7 7.17 7.17 0 00-2.5-5.6c-1.7-1.5-4.2-2.3-7.5-2.3h-12c-.8 0-1.2.4-1.2 1.3v26.2c0 .9.4 1.3 1.3 1.3zm43.6-9.8a3.94 3.94 0 01-1.3 3.2 4.96 4.96 0 01-3.5 1.2 5.13 5.13 0 01-3.5-1.2 4.08 4.08 0 01-1.3-3.2v-9.1a3.94 3.94 0 011.3-3.2 4.96 4.96 0 013.5-1.2 5.13 5.13 0 013.5 1.2 4.08 4.08 0 011.3 3.2zm2.9-17.2a10.38 10.38 0 00-3.7-1.7 13.36 13.36 0 00-4-.6 13.86 13.86 0 00-4 .6 17.64 17.64 0 00-3.7 1.7 8.99 8.99 0 00-3.9 7.5v10.3a8 8 0 001.1 4.4 8.37 8.37 0 002.8 3.1 10.38 10.38 0 003.7 1.7 17.56 17.56 0 004 .6 13.86 13.86 0 004-.6 17.64 17.64 0 003.7-1.7 8.99 8.99 0 003.9-7.5v-10.3a8.97 8.97 0 00-1.1-4.4 7.67 7.67 0 00-2.8-3.1zm29.9 20.9H330v-5.8h11.5c.8 0 1.2-.4 1.2-1.3v-3.4c0-.8-.4-1.3-1.2-1.3H330v-4.8h13c.8 0 1.2-.4 1.2-1.3v-3.6c0-.8-.4-1.3-1.2-1.3h-18.5c-.8 0-1.2.4-1.2 1.3v26.2c0 .8.4 1.3 1.2 1.3h19.2c.8 0 1.2-.4 1.2-1.3V277c0-.7-.4-1.1-1.2-1.1zm28.2-22.6h-4.3c-.8 0-1.2.4-1.2 1.3v9.9h-9.6v-9.9a1.33 1.33 0 00-.3-1 1.22 1.22 0 00-.9-.3h-4.2c-.8 0-1.2.4-1.2 1.3v26.2c0 .8.4 1.3 1.2 1.3h4.2a1.22 1.22 0 00.9-.3 1.33 1.33 0 00.3-1v-9.9h9.6v9.9c0 .8.4 1.3 1.2 1.3h4.3c.8 0 1.2-.4 1.2-1.3v-26.2c0-.9-.4-1.3-1.2-1.3zm29.4 0h-4.2c-.8 0-1.2.4-1.2 1.3v9.9h-9.6v-9.9a1.33 1.33 0 00-.3-1 1.22 1.22 0 00-.9-.3h-4.4c-.8 0-1.2.4-1.2 1.3v26.2c0 .8.4 1.3 1.2 1.3h4.3a1.22 1.22 0 00.9-.3 1.33 1.33 0 00.3-1v-9.9h9.6v9.9c0 .8.4 1.3 1.2 1.3h4.2c.8 0 1.2-.4 1.2-1.3v-26.2c.1-.9-.3-1.3-1.1-1.3zm18.4 22.5h-4.1v-7.4h4.1a5.34 5.34 0 013.6 1 3.42 3.42 0 011.2 2.7c0 2.5-1.6 3.7-4.8 3.7zm0-13.2h-4.1v-8.1c0-.8-.4-1.3-1.2-1.3h-4.3c-.8 0-1.2.4-1.2 1.3v26.2c0 .8.4 1.3 1.2 1.3h9.7c3.6 0 6.4-.9 8.3-2.6a10.39 10.39 0 000-14.4q-2.85-2.4-8.4-2.4zm16.6 19.4h4.3c.8 0 1.2-.4 1.2-1.3v-26.2c0-.8-.4-1.3-1.2-1.3h-4.3c-.8 0-1.2.4-1.2 1.3v26.2c0 .9.4 1.3 1.2 1.3zm13.2 0h3.9a2.92 2.92 0 00.9-.2c.2-.2.4-.3.5-.4a3.77 3.77 0 00.5-.8l9.1-15v15.2c0 .8.4 1.3 1.2 1.3h4.3c.8 0 1.2-.4 1.2-1.3v-26.2c0-.8-.4-1.3-1.2-1.3h-4a2.92 2.92 0 00-.9.2c-.2.2-.4.3-.5.4a3.77 3.77 0 00-.5.8l-9.1 14.9v-15.1c0-.8-.4-1.3-1.2-1.3h-4.1c-.8 0-1.2.4-1.2 1.3v26.2c-.2.9.2 1.3 1.1 1.3zm6-33.2a8.15 8.15 0 004.7 1.4 7.93 7.93 0 004.7-1.4 5.32 5.32 0 002.3-4c0-.6-.1-.9-.4-.9h-2.1c-.3 0-.5.2-.7.7a3.32 3.32 0 01-1.5 1.6 4.7 4.7 0 01-4.6 0 3.32 3.32 0 01-1.5-1.6c-.2-.5-.4-.7-.7-.7h-2.1c-.2 0-.3.1-.3.2a.6.6 0 00-.1.4v.3a5.32 5.32 0 002.3 4zm-166 40.8h-5.8a2.68 2.68 0 00-1.1.2 3.52 3.52 0 00-1 .9l-8.9 9.9v-9.7c0-.8-.4-1.3-1.2-1.3h-4.3a1.22 1.22 0 00-.9.3 1.33 1.33 0 00-.3 1v26.2a1.33 1.33 0 00.3 1 1.22 1.22 0 00.9.3h4.3c.8 0 1.2-.4 1.2-1.3v-7.8l2.7-2.8c1.5 2.6 3.6 6.1 6.1 10.5a2.61 2.61 0 002.1 1.4h5.2a.67.67 0 00.7-.5.97.97 0 00-.1-.9l-9.2-15.4 9.7-10.6a.78.78 0 00.2-.8.53.53 0 00-.6-.6zm20 18.9a3.94 3.94 0 01-1.3 3.2 4.96 4.96 0 01-3.5 1.2 5.13 5.13 0 01-3.5-1.2 4.08 4.08 0 01-1.3-3.2v-9.1a3.94 3.94 0 011.3-3.2 4.96 4.96 0 013.5-1.2 5.13 5.13 0 013.5 1.2 4.08 4.08 0 011.3 3.2zm2.9-17.2a10.38 10.38 0 00-3.7-1.7 13.36 13.36 0 00-4-.6 13.86 13.86 0 00-4 .6 17.64 17.64 0 00-3.7 1.7 8.99 8.99 0 00-3.9 7.5v10.3a8 8 0 001.1 4.4 8.37 8.37 0 002.8 3.1 10.38 10.38 0 003.7 1.7 13.36 13.36 0 004 .6 13.86 13.86 0 004-.6 17.64 17.64 0 003.7-1.7 8.99 8.99 0 003.9-7.5v-10.3a8.97 8.97 0 00-1.1-4.4 8.37 8.37 0 00-2.8-3.1zm31.2-1.7h-4.2c-.8 0-1.2.4-1.2 1.3v9.9h-9.6v-9.9a1.33 1.33 0 00-.3-1 1.22 1.22 0 00-.9-.3h-4.2c-.8 0-1.2.4-1.2 1.3v26.2c0 .8.4 1.3 1.2 1.3h4.2a1.22 1.22 0 00.9-.3 1.33 1.33 0 00.3-1v-9.9h9.6v9.9c0 .8.4 1.3 1.2 1.3h4.2c.8 0 1.2-.4 1.2-1.3v-26.2c0-.8-.4-1.3-1.2-1.3zm14.7 6.6a4.96 4.96 0 013.5-1.2 4.76 4.76 0 014.4 2.1c.1.1.1.3.3.5a1.54 1.54 0 00.4.6 1.42 1.42 0 00.6.2h4.1a2.68 2.68 0 001.1-.2 1.33 1.33 0 00.3-1 8.15 8.15 0 00-3.6-6.1 12.96 12.96 0 00-7.5-2.2 13.86 13.86 0 00-4 .6 17.64 17.64 0 00-3.7 1.7 8.99 8.99 0 00-3.9 7.5V309a9.26 9.26 0 001.1 4.4 8.37 8.37 0 002.8 3.1 10.38 10.38 0 003.7 1.7 13.36 13.36 0 004 .6 12.77 12.77 0 007.7-2.6 7.9 7.9 0 003.5-6.6c0-1-.4-1.5-1.3-1.5h-4.2a1.45 1.45 0 00-.7.2c-.2.2-.3.3-.3.5a3.1 3.1 0 01-.2.8q-.45 3-4.5 3a5.13 5.13 0 01-3.5-1.2 3.94 3.94 0 01-1.3-3.2v-9.1a3.46 3.46 0 011.2-2.9zm43-6.6h-4.8a1.6 1.6 0 00-1.1.3 2.85 2.85 0 00-.7 1l-2.9 6.1-2.6 5.9-2.6-6-3-6.2a1.71 1.71 0 00-.6-.9 2.5 2.5 0 00-1-.2h-5.1a.81.81 0 00-.8.4 1.39 1.39 0 000 .9l9.6 19.5-3.2 6.7a.97.97 0 00-.1.9.63.63 0 00.6.5h4.8a2.68 2.68 0 001.1-.2 3.06 3.06 0 00.8-1l12.5-26.3a1.39 1.39 0 000-.9.96.96 0 00-.9-.5zm25.8 0H410c-.8 0-1.2.4-1.2 1.3l-1.5 19a4.86 4.86 0 01-.6 2.2c-.3.5-.9.7-1.8.7q-.9 0-.9 1.2v3.3a2.15 2.15 0 00.2 1c.2.2.5.2 1.1.2 3.3.1 5.5-.5 6.7-1.6 1.1-1.1 1.8-3.4 2-7l.9-14.2h6.9V317c0 .8.4 1.3 1.2 1.3h4.2c.8 0 1.2-.4 1.2-1.3v-26.2a1.18 1.18 0 00-1.3-1.2zm18.5 22.6h-4.1v-7.4h4.1a5.34 5.34 0 013.6 1 3.42 3.42 0 011.2 2.7c0 2.5-1.6 3.7-4.8 3.7zm0-13.3h-4.1v-8.1c0-.8-.4-1.3-1.2-1.3H436c-.8 0-1.2.4-1.2 1.3V317c0 .8.4 1.3 1.2 1.3h9.7c3.6 0 6.4-.9 8.3-2.6a10.39 10.39 0 000-14.4 13.75 13.75 0 00-8.4-2.4zm35.8-9.3h-19.9c-.8 0-1.2.4-1.2 1.3v3.6c0 .8.4 1.3 1.2 1.3h6.6v21.3c0 .8.4 1.3 1.2 1.3h4.2c.8 0 1.2-.4 1.2-1.3v-21.3h6.6c.8 0 1.2-.4 1.2-1.3v-3.6a1.03 1.03 0 00-1.1-1.3zm13.3 17.9l3.2-9.6 3.2 9.6zm7-16.5a1.98 1.98 0 00-1.8-1.4h-4.1a1.98 1.98 0 00-1.8 1.4l-9.5 26.1c-.3.8-.1 1.2.7 1.2h4.5a1.8 1.8 0 001.1-.3 2.89 2.89 0 00.6-1l1.2-3.4h10.5l1.2 3.4a2.14 2.14 0 00.6 1 1.6 1.6 0 001.1.3h4.5c.8 0 1.1-.4.7-1.2zm35.1-1.4h-4.3c-.8 0-1.2.4-1.2 1.3v9.9h-9.6v-9.9a1.33 1.33 0 00-.3-1 1.22 1.22 0 00-.9-.3h-4.3c-.8 0-1.2.4-1.2 1.3v26.2c0 .8.4 1.3 1.2 1.3h4.3a1.22 1.22 0 00.9-.3 1.33 1.33 0 00.3-1v-9.9h9.6v9.9c0 .8.4 1.3 1.2 1.3h4.3c.8 0 1.2-.4 1.2-1.3v-26.2a1.1 1.1 0 00-1.2-1.3zm26.7 0h-19.9c-.8 0-1.2.4-1.2 1.3v3.6c0 .8.4 1.3 1.2 1.3h6.6v21.3c0 .8.4 1.3 1.2 1.3h4.2c.8 0 1.2-.4 1.2-1.3v-21.3h6.6c.8 0 1.2-.4 1.2-1.3v-3.6a1.03 1.03 0 00-1.1-1.3zM236.5 0H168a1.27 1.27 0 00-1.4 1.2v28.1c0 3.7-3.6 6.8-8 6.8h-42.7c-4.4 0-8-3-8-6.8V25c0-3.7 3.6-6.8 8-6.8h21.6c4.4 0 7.9-3 8-6.6V6.8c0-3.7-3.6-6.8-8-6.8h-76a1.29 1.29 0 00-1.4 1.3c2.8 49.4 42.9 64.6 71.3 72.8 41.8 12.1 97.6 24.3 106.9 54.8a10.26 10.26 0 01.4 1.4c.2.6 1.3.5 1.5 0V66.6c-.2-3.6-4.4-6.3-8.8-5.6a125.75 125.75 0 01-18 1.8h-.1c-1 .1-2.1.1-3.2.1-15.5 0-28.1-7.7-28.1-17.2 0-5.3 3.9-10 10-13.1 8.7-4.8 21.5-5.6 39.2-2.6 4.5.8 8.7-2 8.9-5.7V2.8a3.37 3.37 0 00-3.6-2.8z" fill="#fff"/><path d="M533.5.1h-64a3.14 3.14 0 00-2 5.6 55.92 55.92 0 016.3 5.7c9.8 10.4 14.7 23.2 14.7 38.5q0 30.15-26.3 43.2l-5.2 2.3 5.2 2.3q26.25 13.05 26.3 43.2c0 15.2-4.9 28.1-14.7 38.5a55.92 55.92 0 01-6.3 5.7 3.14 3.14 0 002 5.6h64a3.22 3.22 0 003.2-3.2V3.3a3.29 3.29 0 00-3.2-3.2zM596 97.5a3.01 3.01 0 010-3.8l67.7-88.5a3.17 3.17 0 00-2.5-5.1h-40.5a3.34 3.34 0 00-2.5 1.2l-70.6 92.3a3.01 3.01 0 000 3.8l70.6 92.3a3.03 3.03 0 002.5 1.2h40.5a3.17 3.17 0 002.5-5.1zm-257.4 15.7H370a19.2 19.2 0 0112.9 5.1 23.4 23.4 0 017.6 12.8 38.88 38.88 0 01.5 4.8c0 7.8-3.2 13.7-9.7 17.6a18.4 18.4 0 01-10 2.9h-58.6a3.22 3.22 0 01-3.2-3.2V37.8a3.22 3.22 0 013.2-3.2h58.6a19.29 19.29 0 0110 2.9c6.5 3.9 9.7 9.8 9.7 17.6a38.88 38.88 0 01-.5 4.8 24.38 24.38 0 01-7.6 12.8 19.01 19.01 0 01-12.9 5.1h-31.4a4.03 4.03 0 00-4 4.1v27.2a4.03 4.03 0 004 4.1zm74.8-19.9q26.25-12.45 26.3-41.3c0-14.6-4.9-26.8-14.7-36.7A49.53 49.53 0 00388.5.1H269.1a3.22 3.22 0 00-3.2 3.2v184.6a3.22 3.22 0 003.2 3.2h119.3a49.37 49.37 0 0036.5-15.2c9.8-9.9 14.7-22.2 14.7-36.7 0-19.2-8.8-32.9-26.3-41.3l-5.1-2.2zM143 180.6C98 161 43 142.8 5.9 97.5a3.15 3.15 0 00-5.6 2.2c3.3 56.1 35.3 82.8 83.8 103.9 27.5 11.9 60.7 23.3 100.5 65.2a3.2 3.2 0 004.8-.2c29-35.8.3-67.6-46.4-88zM6.4 180c-.3-.6-1.4-2.2-3-1.4-1.1.5-1.2 1.6-.5 4.6 9 38 50.5 96 119.6 132.2a3 3 0 002.9 0 285.1 285.1 0 0035.6-21.9 3.13 3.13 0 001-4C137.8 245.6 38.3 235.2 6.4 180zm109.2-81.5C83.7 87.7 38.7 67.6 35.1 3A3.16 3.16 0 0032 0H3.2A3.22 3.22 0 000 3.2c.3 31.4 11.1 60.3 29.4 81.4 26.7 30.6 47.3 36.5 75 47.3 25 9.8 101.6 32 124.3 77.9a3.16 3.16 0 005.8-.3c23.9-63.3-60.2-91.1-118.9-111z" fill="#23b7a4" fill-rule="evenodd"/></svg><svg viewBox="0 0 94 94" id="ok" xmlns="http://www.w3.org/2000/svg"><path d="M47.051 37.59c5.247-.017 9.426-4.23 9.407-9.489-.021-5.259-4.207-9.448-9.456-9.452-5.293-.005-9.52 4.259-9.479 9.566.039 5.239 4.265 9.397 9.528 9.375z"/><path d="M89 0H5a5 5 0 00-5 5v84a5 5 0 005 5h84a5 5 0 005-5V5a5 5 0 00-5-5zM47.08 8.766c10.699.027 19.289 8.781 19.236 19.602-.057 10.57-8.787 19.138-19.469 19.102-10.576-.036-19.248-8.803-19.188-19.396.063-10.709 8.741-19.34 19.421-19.308zm21.673 46.306c-2.366 2.431-5.214 4.187-8.378 5.416-2.991 1.156-6.268 1.742-9.512 2.13.49.534.721.793 1.025 1.102 4.404 4.425 8.826 8.832 13.215 13.27 1.494 1.511 1.81 3.386.985 5.145-.901 1.925-2.916 3.188-4.894 3.052-1.252-.088-2.228-.711-3.094-1.582-3.324-3.345-6.711-6.627-9.965-10.031-.947-.992-1.403-.807-2.241.056a664.352 664.352 0 01-10.155 10.2c-1.535 1.514-3.36 1.785-5.143.922-1.892-.917-3.094-2.848-3.001-4.791.064-1.312.71-2.314 1.611-3.214 4.356-4.351 8.702-8.713 13.05-13.072.289-.288.557-.597.976-1.045-5.929-.619-11.275-2.077-15.85-5.657-.567-.445-1.154-.875-1.674-1.373-2.002-1.924-2.203-4.125-.618-6.396 1.354-1.942 3.632-2.464 5.997-1.349.459.215.895.486 1.313.775 8.528 5.86 20.245 6.023 28.806.266.847-.647 1.754-1.183 2.806-1.449 2.045-.525 3.947.224 5.045 2.012 1.257 2.037 1.24 4.029-.304 5.613z"/></svg><svg viewBox="0 0 401.998 401.998" id="phone" xmlns="http://www.w3.org/2000/svg"><path d="M401.129 311.475c-1.137-3.426-8.371-8.473-21.697-15.129-3.61-2.098-8.754-4.949-15.41-8.566a1437.412 1437.412 0 01-18.13-9.996 605.612 605.612 0 01-15.276-8.846c-.76-.571-3.139-2.234-7.136-5-4.001-2.758-7.375-4.805-10.14-6.14-2.759-1.327-5.473-1.995-8.138-1.995-3.806 0-8.56 2.714-14.268 8.135a139.01 139.01 0 00-15.7 17.706c-4.757 6.379-9.802 12.275-15.126 17.7-5.332 5.427-9.713 8.138-13.135 8.138-1.718 0-3.86-.479-6.427-1.424-2.566-.951-4.518-1.766-5.858-2.423-1.328-.671-3.607-1.999-6.845-4.004-3.244-1.999-5.048-3.094-5.428-3.285-26.075-14.469-48.438-31.029-67.093-49.676-18.649-18.658-35.211-41.019-49.676-67.097-.19-.381-1.287-2.19-3.284-5.424-2-3.237-3.333-5.518-3.999-6.854-.666-1.331-1.475-3.283-2.425-5.852s-1.427-4.709-1.427-6.424c0-3.424 2.713-7.804 8.138-13.134 5.424-5.327 11.326-10.373 17.7-15.128a138.95 138.95 0 0017.701-15.699c5.424-5.711 8.136-10.467 8.136-14.273 0-2.663-.666-5.378-1.997-8.137-1.332-2.765-3.378-6.139-6.139-10.138-2.762-3.997-4.427-6.374-4.999-7.139a627.13 627.13 0 01-8.848-15.271 1441.4 1441.4 0 01-9.995-18.131c-3.615-6.658-6.468-11.799-8.564-15.415C98.986 9.233 93.943 1.997 90.516.859 89.183.288 87.183 0 84.521 0c-5.142 0-11.85.95-20.129 2.856-8.282 1.903-14.799 3.899-19.558 5.996-9.517 3.995-19.604 15.605-30.264 34.826C4.863 61.566.01 79.271.01 96.78c0 5.135.333 10.131.999 14.989.666 4.853 1.856 10.326 3.571 16.418 1.712 6.09 3.093 10.614 4.137 13.56 1.045 2.948 2.996 8.229 5.852 15.845 2.852 7.614 4.567 12.275 5.138 13.988 6.661 18.654 14.56 35.307 23.695 49.964 15.03 24.362 35.541 49.539 61.521 75.521 25.981 25.98 51.153 46.49 75.517 61.526 14.655 9.134 31.314 17.032 49.965 23.698 1.714.568 6.375 2.279 13.986 5.141 7.614 2.854 12.897 4.805 15.845 5.852 2.949 1.048 7.474 2.43 13.559 4.145 6.098 1.715 11.566 2.905 16.419 3.576 4.856.657 9.853.996 14.989.996 17.508 0 35.214-4.856 53.105-14.562 19.219-10.656 30.826-20.745 34.823-30.269 2.102-4.754 4.093-11.273 5.996-19.555 1.909-8.278 2.857-14.985 2.857-20.126.006-2.673-.281-4.668-.855-6.012z"/></svg><svg viewBox="-66 0 512 512.001" id="pin" xmlns="http://www.w3.org/2000/svg"><path d="M190.39 103.977c-47.648 0-86.413 38.765-86.413 86.41 0 47.648 38.765 86.414 86.414 86.414s86.41-38.766 86.41-86.414c0-47.645-38.766-86.41-86.41-86.41zm0 0"/><path d="M191.168.004l-.8-.004C85.397 0 0 85.406 0 190.387c0 57.554 29.418 102.445 62.195 147.148L190.113 512S311.02 347.852 318.582 337.54c32.777-44.704 62.195-89.595 62.195-147.15C380.777 85.669 295.797.419 191.168.005zm-.777 306.789c-64.188 0-116.407-52.219-116.407-116.406 0-64.184 52.22-116.403 116.407-116.403s116.406 52.22 116.406 116.403c0 64.187-52.223 116.406-116.406 116.406zm0 0"/></svg><svg viewBox="0 0 24 24" id="tg" xmlns="http://www.w3.org/2000/svg"><path d="M9.417 15.181l-.397 5.584c.568 0 .814-.244 1.109-.537l2.663-2.545 5.518 4.041c1.012.564 1.725.267 1.998-.931L23.93 3.821l.001-.001c.321-1.496-.541-2.081-1.527-1.714l-21.29 8.151c-1.453.564-1.431 1.374-.247 1.741l5.443 1.693L18.953 5.78c.595-.394 1.136-.176.691.218z"/></svg><svg viewBox="0 0 59.414 31.122" id="train" xmlns="http://www.w3.org/2000/svg"><path d="M0 29.707l1.414 1.415L29.707 2.829 58 31.122l1.414-1.415L29.707 0 0 29.707z"/></svg><svg viewBox="0 0 24 24" id="vk" xmlns="http://www.w3.org/2000/svg"><path d="M19.915 13.028c-.388-.49-.277-.708 0-1.146.005-.005 3.208-4.431 3.538-5.932l.002-.001c.164-.547 0-.949-.793-.949h-2.624c-.668 0-.976.345-1.141.731 0 0-1.336 3.198-3.226 5.271-.61.599-.892.791-1.225.791-.164 0-.419-.192-.419-.739V5.949c0-.656-.187-.949-.74-.949H9.161c-.419 0-.668.306-.668.591 0 .622.945.765 1.043 2.515v3.797c0 .832-.151.985-.486.985-.892 0-3.057-3.211-4.34-6.886-.259-.713-.512-1.001-1.185-1.001H.9c-.749 0-.9.345-.9.731 0 .682.892 4.073 4.148 8.553C6.318 17.343 9.374 19 12.154 19c1.671 0 1.875-.368 1.875-1.001 0-2.922-.151-3.198.686-3.198.388 0 1.056.192 2.616 1.667C19.114 18.217 19.407 19 20.405 19h2.624c.748 0 1.127-.368.909-1.094-.499-1.527-3.871-4.668-4.023-4.878z"/></svg></svg>